<svg width="302" height="258" viewBox="0 0 302 258" fill="none" xmlns="http://www.w3.org/2000/svg">
<path fill-rule="evenodd" clip-rule="evenodd" d="M0.477356 126.895L76.9114 92.0014V0.611643L0.477356 126.895Z" fill="white"/>
<path fill-rule="evenodd" clip-rule="evenodd" d="M161.661 126.895L85.2259 92.0014V0.611643L161.661 126.895Z" fill="white"/>
<path fill-rule="evenodd" clip-rule="evenodd" d="M160.901 148.295L84.4659 192.604V257.684L160.901 148.295Z" fill="white"/>
<path fill-rule="evenodd" clip-rule="evenodd" d="M0.477356 148.295L76.9114 192.604V257.684L0.477356 148.295Z" fill="white"/>
<path fill-rule="evenodd" clip-rule="evenodd" d="M43.1096 149.001C47.9115 149.001 51.8042 152.893 51.8042 157.696C51.8042 162.498 47.9115 166.39 43.1096 166.39C38.3071 166.39 34.4145 162.498 34.4145 157.696C34.4145 152.893 38.3071 149.001 43.1096 149.001Z" fill="white"/>
<path fill-rule="evenodd" clip-rule="evenodd" d="M117.169 149.001C121.97 149.001 125.864 152.893 125.864 157.696C125.864 162.498 121.97 166.39 117.169 166.39C112.367 166.39 108.473 162.498 108.473 157.696C108.473 152.893 112.367 149.001 117.169 149.001Z" fill="white"/>
<path d="M170.501 204.796C168.732 204.796 167.088 204.567 165.575 204.108C164.059 203.649 162.779 203.025 161.735 202.236L162.983 199.004C164.027 199.751 165.173 200.327 166.421 200.732C167.669 201.137 169.03 201.34 170.501 201.34C172.188 201.34 173.413 201.057 174.182 200.492C174.949 199.927 175.334 199.196 175.334 198.3C175.334 197.554 175.061 196.967 174.518 196.54C173.974 196.114 173.04 195.762 171.718 195.484L168.197 194.748C164.188 193.895 162.183 191.836 162.183 188.572C162.183 187.164 162.556 185.938 163.301 184.893C164.049 183.847 165.083 183.037 166.407 182.461C167.729 181.883 169.254 181.597 170.981 181.597C172.518 181.597 173.957 181.826 175.301 182.283C176.646 182.743 177.766 183.389 178.662 184.221L177.414 187.292C175.644 185.799 173.489 185.053 170.949 185.053C169.478 185.053 168.325 185.362 167.495 185.98C166.661 186.598 166.247 187.41 166.247 188.412C166.247 189.18 166.501 189.794 167.013 190.252C167.525 190.711 168.401 191.068 169.637 191.324L173.125 192.06C175.237 192.508 176.812 193.212 177.846 194.172C178.88 195.132 179.398 196.412 179.398 198.012C179.398 199.356 179.034 200.54 178.309 201.564C177.585 202.588 176.556 203.382 175.222 203.948C173.889 204.513 172.316 204.796 170.501 204.796ZM182.534 204.475V181.916L186.534 183.428V195.484H186.598L192.901 188.828H197.734L190.63 196.316L198.182 204.475H193.285L186.598 197.5H186.534V204.475L182.534 204.475ZM200.518 210.236L203.398 203.836L196.902 188.828H201.158L205.542 199.772L210.021 188.828H214.053L204.646 210.236H200.518ZM188.613 231.877C184.475 231.877 182.406 229.829 182.406 225.733V218.917H179.398V215.909H182.406V211.237L186.406 212.748V215.909H191.142V218.917H186.406V225.509C186.406 226.533 186.63 227.301 187.078 227.813C187.525 228.325 188.251 228.581 189.254 228.581C189.551 228.581 189.861 228.543 190.181 228.469C190.501 228.394 190.833 228.314 191.173 228.229L191.782 231.173C191.398 231.385 190.913 231.556 190.325 231.685C189.739 231.813 189.167 231.877 188.613 231.877ZM193.733 231.556V208.997L197.734 210.509V218.181C198.267 217.328 198.982 216.682 199.878 216.245C200.772 215.808 201.766 215.589 202.854 215.589C206.544 215.589 208.388 217.733 208.388 222.021V231.556H204.388V222.213C204.388 220.997 204.16 220.111 203.7 219.557C203.243 219.002 202.534 218.725 201.574 218.725C200.399 218.725 199.467 219.093 198.772 219.829C198.079 220.565 197.734 221.541 197.734 222.757V231.556H193.733ZM220.165 231.877C218.393 231.877 216.868 231.546 215.588 230.885C214.308 230.223 213.321 229.285 212.629 228.069C211.936 226.853 211.588 225.413 211.588 223.749C211.588 222.127 211.924 220.709 212.596 219.493C213.268 218.277 214.197 217.322 215.38 216.629C216.565 215.935 217.915 215.589 219.429 215.589C221.648 215.589 223.402 216.293 224.692 217.701C225.984 219.109 226.629 221.029 226.629 223.461V224.645H215.429C215.728 227.439 217.327 228.837 220.229 228.837C221.104 228.837 221.978 228.703 222.853 228.437C223.726 228.17 224.526 227.749 225.253 227.173L226.373 229.861C225.626 230.479 224.686 230.97 223.557 231.332C222.426 231.695 221.296 231.877 220.165 231.877ZM219.588 218.309C218.416 218.309 217.467 218.672 216.741 219.398C216.016 220.123 215.577 221.104 215.429 222.341H223.3C223.216 221.04 222.857 220.042 222.229 219.349C221.6 218.656 220.72 218.309 219.588 218.309ZM229.797 231.557V215.909L233.701 217.421V218.661C234.469 216.805 236.111 215.781 238.629 215.589L239.845 215.493L240.101 218.885L237.797 219.11C235.173 219.365 233.861 220.709 233.861 223.141V231.557H229.797ZM249.796 231.877C248.026 231.877 246.499 231.546 245.221 230.885C243.941 230.223 242.954 229.285 242.261 228.069C241.567 226.853 241.221 225.413 241.221 223.749C241.221 222.128 241.557 220.709 242.229 219.493C242.899 218.277 243.829 217.323 245.011 216.629C246.197 215.936 247.546 215.589 249.06 215.589C251.279 215.589 253.034 216.293 254.323 217.701C255.615 219.11 256.26 221.029 256.26 223.461V224.645H245.061C245.359 227.44 246.959 228.837 249.86 228.837C250.735 228.837 251.61 228.704 252.484 228.437C253.359 228.17 254.159 227.749 254.884 227.173L256.004 229.861C255.258 230.48 254.319 230.97 253.188 231.333C252.058 231.696 250.927 231.877 249.796 231.877ZM249.22 218.309C248.047 218.309 247.098 218.672 246.373 219.398C245.647 220.123 245.21 221.104 245.061 222.341H252.932C252.847 221.04 252.49 220.043 251.86 219.349C251.231 218.656 250.351 218.309 249.22 218.309ZM265.092 231.877C261.252 231.877 259.332 229.722 259.332 225.413V215.909L263.332 217.421V225.477C263.332 226.586 263.556 227.408 264.004 227.941C264.452 228.474 265.167 228.741 266.148 228.741C267.215 228.741 268.089 228.373 268.772 227.637C269.455 226.901 269.796 225.925 269.796 224.709V215.909L273.796 217.421V231.557H269.892V229.221C268.847 230.992 267.247 231.877 265.092 231.877ZM278.02 231.557V215.909L281.924 217.421V218.309C282.393 217.456 283.044 216.789 283.876 216.309C284.708 215.829 285.668 215.589 286.756 215.589C289.102 215.589 290.638 216.613 291.363 218.661C291.854 217.701 292.558 216.949 293.475 216.405C294.393 215.861 295.438 215.589 296.611 215.589C300.131 215.589 301.891 217.733 301.891 222.021V231.557H297.891V222.181C297.891 220.987 297.694 220.112 297.299 219.557C296.905 219.002 296.238 218.725 295.299 218.725C294.254 218.725 293.433 219.093 292.835 219.829C292.238 220.565 291.939 221.583 291.939 222.885V231.557H287.94V222.181C287.94 220.987 287.742 220.112 287.348 219.557C286.953 219.002 286.297 218.725 285.38 218.725C284.334 218.725 283.513 219.093 282.916 219.829C282.318 220.565 282.02 221.583 282.02 222.885V231.557H278.02ZM162.725 228.357V205.797H177.734V209.061H166.661V215.269H177.03V218.533H166.661V225.093H177.734V228.357H162.725ZM170.501 252.239C168.732 252.239 167.088 252.009 165.575 251.55C164.059 251.092 162.779 250.468 161.735 249.679L162.983 246.447C164.027 247.194 165.173 247.77 166.421 248.175C167.669 248.58 169.03 248.783 170.501 248.783C172.188 248.783 173.413 248.5 174.182 247.935C174.949 247.369 175.334 246.639 175.334 245.743C175.334 244.996 175.061 244.409 174.518 243.983C173.974 243.556 173.04 243.204 171.718 242.927L168.197 242.191C164.188 241.338 162.183 239.279 162.183 236.015C162.183 234.607 162.556 233.38 163.301 232.335C164.049 231.29 165.083 230.479 166.407 229.903C167.729 229.327 169.254 229.039 170.981 229.039C172.518 229.039 173.957 229.269 175.301 229.727C176.646 230.186 177.766 230.831 178.662 231.663L177.414 234.735C175.644 233.242 173.489 232.495 170.949 232.495C169.478 232.495 168.325 232.804 167.495 233.423C166.661 234.041 166.247 234.852 166.247 235.855C166.247 236.623 166.501 237.236 167.013 237.695C167.525 238.154 168.401 238.511 169.637 238.767L173.125 239.503C175.237 239.951 176.812 240.655 177.846 241.615C178.88 242.574 179.398 243.855 179.398 245.455C179.398 246.799 179.034 247.983 178.309 249.007C177.585 250.03 176.556 250.825 175.222 251.39C173.889 251.956 172.316 252.239 170.501 252.239ZM183.686 257.678L186.566 251.279L180.07 236.271H184.326L188.71 247.215L193.19 236.271H197.222L187.814 257.679L183.686 257.678ZM204.518 252.239C203.195 252.239 201.958 252.078 200.806 251.759C199.654 251.439 198.694 250.98 197.924 250.383L198.95 247.759C199.739 248.292 200.624 248.702 201.606 248.991C202.587 249.279 203.568 249.423 204.548 249.423C205.574 249.423 206.336 249.247 206.838 248.895C207.339 248.543 207.59 248.079 207.59 247.502C207.59 246.607 206.928 246.031 205.606 245.775L202.406 245.167C199.696 244.655 198.342 243.247 198.342 240.943C198.342 239.919 198.624 239.033 199.19 238.287C199.755 237.54 200.539 236.964 201.542 236.559C202.544 236.153 203.696 235.951 204.998 235.951C206.107 235.951 207.174 236.105 208.198 236.415C209.221 236.724 210.096 237.188 210.821 237.807L209.733 240.431C209.115 239.919 208.374 239.514 207.51 239.215C206.646 238.916 205.819 238.767 205.03 238.767C203.984 238.767 203.211 238.949 202.71 239.311C202.208 239.674 201.958 240.154 201.958 240.751C201.958 241.69 202.566 242.266 203.782 242.479L206.982 243.087C208.368 243.343 209.419 243.812 210.133 244.495C210.848 245.177 211.205 246.095 211.205 247.247C211.205 248.804 210.597 250.025 209.381 250.911C208.166 251.796 206.544 252.239 204.518 252.239ZM221.413 252.239C217.275 252.239 215.205 250.19 215.205 246.095V239.279H212.197V236.271H215.205V231.599L219.205 233.111V236.271H223.941V239.279H219.205V245.871C219.205 246.895 219.429 247.662 219.877 248.175C220.325 248.687 221.051 248.943 222.053 248.943C222.352 248.943 222.661 248.905 222.981 248.831C223.301 248.756 223.632 248.676 223.973 248.591L224.581 251.535C224.197 251.748 223.712 251.919 223.124 252.047C222.538 252.174 221.966 252.239 221.413 252.239ZM234.085 252.239C232.314 252.239 230.789 251.908 229.509 251.247C228.229 250.585 227.242 249.647 226.549 248.431C225.856 247.215 225.509 245.775 225.509 244.111C225.509 242.489 225.845 241.071 226.517 239.855C227.189 238.639 228.117 237.684 229.301 236.991C230.485 236.298 231.834 235.951 233.349 235.951C235.567 235.951 237.322 236.655 238.613 238.063C239.903 239.471 240.549 241.391 240.549 243.823V245.007H229.349C229.648 247.801 231.248 249.199 234.149 249.199C235.023 249.199 235.898 249.065 236.773 248.799C237.647 248.532 238.447 248.111 239.173 247.535L240.293 250.223C239.546 250.841 238.607 251.332 237.477 251.695C236.346 252.058 235.215 252.239 234.085 252.239ZM233.509 238.671C232.336 238.671 231.386 239.034 230.661 239.759C229.936 240.485 229.498 241.466 229.349 242.703H237.221C237.135 241.402 236.778 240.404 236.149 239.711C235.519 239.018 234.64 238.671 233.509 238.671ZM243.781 251.919V236.271L247.685 237.783V238.671C248.154 237.818 248.805 237.151 249.636 236.671C250.468 236.191 251.428 235.951 252.516 235.951C254.863 235.951 256.399 236.975 257.124 239.023C257.615 238.063 258.319 237.311 259.236 236.767C260.154 236.223 261.199 235.951 262.372 235.951C265.892 235.951 267.652 238.095 267.652 242.383V251.919H263.652V242.543C263.652 241.349 263.455 240.474 263.06 239.919C262.665 239.364 261.999 239.087 261.06 239.087C260.015 239.087 259.194 239.455 258.596 240.191C257.999 240.927 257.7 241.946 257.7 243.247V251.919H253.7V242.543C253.7 241.349 253.503 240.474 253.108 239.919C252.714 239.364 252.058 239.087 251.14 239.087C250.095 239.087 249.274 239.455 248.676 240.191C248.079 240.927 247.781 241.946 247.781 243.247V251.919H243.781Z" fill="white"/>
<path fill-rule="evenodd" clip-rule="evenodd" d="M0.477356 134.415L76.9114 99.5212V126.218C71.4585 127.972 67.5127 133.087 67.5127 139.123C67.5127 145.16 71.4585 150.275 76.9114 152.029V178.726L0.477356 134.415ZM160.9 134.415L84.4646 99.5212V125.998C90.3058 127.506 94.6203 132.811 94.6203 139.123C94.6203 145.436 90.3058 150.74 84.4646 152.249V178.726L160.9 134.415Z" fill="white"/>
<path fill-rule="evenodd" clip-rule="evenodd" d="M81.0633 130.428C85.8659 130.428 89.7578 134.322 89.7578 139.123C89.7578 143.925 85.8659 147.819 81.0633 147.819C76.2612 147.819 72.3686 143.925 72.3686 139.123C72.3686 134.322 76.2612 130.428 81.0633 130.428Z" fill="#ED1C24"/>
</svg>
