<svg width="162" height="258" viewBox="0 0 162 258" fill="none" xmlns="http://www.w3.org/2000/svg">
<path fill-rule="evenodd" clip-rule="evenodd" d="M0.477356 126.895L76.9114 92.0014V0.611643L0.477356 126.895Z" fill="white"/>
<path fill-rule="evenodd" clip-rule="evenodd" d="M161.661 126.895L85.2259 92.0014V0.611643L161.661 126.895Z" fill="white"/>
<path fill-rule="evenodd" clip-rule="evenodd" d="M160.901 148.295L84.4659 192.604V257.684L160.901 148.295Z" fill="white"/>
<path fill-rule="evenodd" clip-rule="evenodd" d="M0.477356 148.295L76.9114 192.604V257.684L0.477356 148.295Z" fill="white"/>
<path fill-rule="evenodd" clip-rule="evenodd" d="M43.1096 149.001C47.9115 149.001 51.8042 152.893 51.8042 157.696C51.8042 162.498 47.9115 166.39 43.1096 166.39C38.3071 166.39 34.4145 162.498 34.4145 157.696C34.4145 152.893 38.3071 149.001 43.1096 149.001Z" fill="white"/>
<path fill-rule="evenodd" clip-rule="evenodd" d="M117.169 149.001C121.97 149.001 125.864 152.893 125.864 157.696C125.864 162.498 121.97 166.39 117.169 166.39C112.367 166.39 108.473 162.498 108.473 157.696C108.473 152.893 112.367 149.001 117.169 149.001Z" fill="white"/>
<path fill-rule="evenodd" clip-rule="evenodd" d="M0.477356 134.415L76.9114 99.5212V126.218C71.4585 127.972 67.5127 133.087 67.5127 139.123C67.5127 145.16 71.4585 150.275 76.9114 152.029V178.726L0.477356 134.415ZM160.9 134.415L84.4646 99.5212V125.998C90.3058 127.506 94.6203 132.811 94.6203 139.123C94.6203 145.436 90.3058 150.74 84.4646 152.249V178.726L160.9 134.415Z" fill="white"/>
<path fill-rule="evenodd" clip-rule="evenodd" d="M81.0633 130.428C85.8659 130.428 89.7578 134.322 89.7578 139.123C89.7578 143.925 85.8659 147.819 81.0633 147.819C76.2612 147.819 72.3686 143.925 72.3686 139.123C72.3686 134.322 76.2612 130.428 81.0633 130.428Z" fill="#ED1C24"/>
</svg>
